<svg xmlns="http://www.w3.org/2000/svg" viewBox="0 0 48 48">
  <path d="M27.847656 6.03125C27.615539 6.0011856 27.375955 6.0028636 27.138672 6.0371094C26.664105 6.1056004 26.198566 6.3070238 25.818359 6.6523438 A 1.50015 1.50015 0 0 0 25.800781 6.6679688L17.339844 14.59375C17.061172 14.854879 16.695876 15 16.314453 15L8.5 15C6.0324991 15 4 17.032499 4 19.5L4 28.5C4 30.967501 6.0324991 33 8.5 33L16.314453 33C16.695876 33 17.061172 33.145121 17.339844 33.40625L25.800781 41.332031 A 1.50015 1.50015 0 0 0 25.818359 41.347656C26.578773 42.038296 27.682536 42.152046 28.511719 41.785156C29.340899 41.418262 30 40.525365 30 39.498047L30 8.5019531C30 7.4746352 29.340901 6.5817332 28.511719 6.2148438C28.304423 6.1231213 28.079773 6.0613144 27.847656 6.03125 z M 27 9.6542969L27 38.345703L19.390625 31.216797C18.557296 30.435926 17.457031 30 16.314453 30L8.5 30C7.6535009 30 7 29.346499 7 28.5L7 19.5C7 18.653501 7.6535009 18 8.5 18L16.314453 18C17.457031 18 18.557296 17.564074 19.390625 16.783203L27 9.6542969 z M 39.248047 11.572266 A 1.50015 1.50015 0 0 0 37.994141 13.910156C39.891304 16.815621 41 20.270163 41 24C41 27.729837 39.891304 31.184379 37.994141 34.089844 A 1.50015 1.50015 0 1 0 40.505859 35.728516C42.706696 32.35798 44 28.326163 44 24C44 19.673837 42.706696 15.64202 40.505859 12.271484 A 1.50015 1.50015 0 0 0 39.248047 11.572266 z M 35.011719 16.257812 A 1.50015 1.50015 0 0 0 33.664062 18.457031C34.514582 20.127695 35 22.002425 35 24C35 25.997575 34.514582 27.872305 33.664062 29.542969 A 1.50015 1.50015 0 1 0 36.335938 30.904297C37.389418 28.834961 38 26.486425 38 24C38 21.513575 37.389418 19.165039 36.335938 17.095703 A 1.50015 1.50015 0 0 0 35.011719 16.257812 z" fill="#2B7A0B" />
</svg>